<?xml version="1.0" encoding="UTF-8" standalone="no"?>
<!-- Created with Inkscape (http://www.inkscape.org/) -->

<svg
   width="2048"
   height="2048"
   viewBox="0 0 541.86665 541.86666"
   version="1.1"
   id="svg5"
   xml:space="preserve"
   inkscape:version="1.2.2 (b0a8486541, 2022-12-01)"
   sodipodi:docname="treadi_logo.svg"
   inkscape:export-filename="../../src/treadi/treadi_icon.png"
   inkscape:export-xdpi="12"
   inkscape:export-ydpi="12"
   xmlns:inkscape="http://www.inkscape.org/namespaces/inkscape"
   xmlns:sodipodi="http://sodipodi.sourceforge.net/DTD/sodipodi-0.dtd"
   xmlns="http://www.w3.org/2000/svg"
   xmlns:svg="http://www.w3.org/2000/svg"><sodipodi:namedview
     id="namedview7"
     pagecolor="#ffffff"
     bordercolor="#000000"
     borderopacity="0.25"
     inkscape:showpageshadow="2"
     inkscape:pageopacity="0.0"
     inkscape:pagecheckerboard="true"
     inkscape:deskcolor="#d1d1d1"
     inkscape:document-units="mm"
     showgrid="false"
     inkscape:zoom="0.457453"
     inkscape:cx="902.82498"
     inkscape:cy="766.19893"
     inkscape:window-width="2076"
     inkscape:window-height="1659"
     inkscape:window-x="20"
     inkscape:window-y="20"
     inkscape:window-maximized="0"
     inkscape:current-layer="layer1" /><defs
     id="defs2" /><g
     inkscape:label="Layer 1"
     inkscape:groupmode="layer"
     id="layer1"><path
       style="opacity:1;fill:#ffffff;fill-opacity:1;stroke:none;stroke-width:5.29167;stroke-linecap:round;stroke-linejoin:round;stroke-dasharray:none"
       d="m 256.71879,31.752984 -11.46819,-3.403431 -20.57296,-1.529078 -17.9134,2.682327 -14.82529,3.636878 -4.75078,3.632284 -8.83838,2.685323 -14.0259,7.629216 -26.15589,18.27545 -28.53108,26.524724 -19.303085,22.271583 -15.777133,22.02285 -24.731832,44.57875 -2.428477,8.46055 -4.951845,11.54367 -4.257107,12.74025 -3.253408,14.22096 -0.511734,14.83209 14.981492,-7.42579 25.500844,-71.04008 31.451875,-48.34813 18.996,-21.185562 21.22199,-17.870586 17.9299,-13.385006 23.42365,-14.035035 21.91013,-6.74995 21.45841,-2.567901 15.24184,2.754605 z"
       id="path3463" /><path
       style="opacity:1;fill:#ffffff;fill-opacity:1;stroke:none;stroke-width:5.29167;stroke-linecap:round;stroke-linejoin:round;stroke-dasharray:none"
       d="m 507.57428,243.75787 3.31017,-8.59595 2.5076,-29.8946 -8.63269,-31.76717 -18.00363,-24.5994 -35.58796,-34.77292 -35.75445,-34.584688 -38.21371,-28.939374 -17.39614,-11.703236 -20.14122,-7.983677 -14.21701,-2.914375 -11.70204,0.920403 -8.69659,1.036825 -14.17308,3.061152 6.40827,11.146076 16.69505,-3.083518 16.81247,0.741274 12.4481,3.371681 29.47916,16.798841 21.7173,18.213395 8.97557,8.374085 3.13464,-0.937377 3.54103,6.174225 59.57494,57.689598 17.29673,19.92395 10.08289,22.55835 1.81664,20.91564 -2.11498,22.92659 z"
       id="path3428" /><path
       style="opacity:1;fill:#ffffff;fill-opacity:1;stroke:none;stroke-width:5.29167;stroke-linecap:round;stroke-linejoin:round;stroke-dasharray:none"
       d="m 299.78657,498.55426 10.69644,-0.16549 8.86892,3.29945 6.25773,-3.44743 9.30102,0.98365 7.33118,-3.40845 7.90561,-1.55441 6.58137,-3.79056 7.42184,-2.41661 4.53909,-4.65162 7.35364,-2.18149 6.82523,-6.43583 6.3216,-2.75581 2.98227,-3.7527 31.95908,-27.59131 3.8158,-5.20609 4.2817,-4.0201 4.24595,-7.42273 5.24584,-3.55081 1.31241,-5.52041 31.49547,-53.10069 18.90987,-64.71006 15.33168,-4.27659 -1.74799,17.3959 -2.81193,12.56452 -10.26261,37.5406 -13.21072,24.33009 -9.79778,18.60938 -5.69234,5.21308 -15.10349,23.1633 -8.90366,10.08613 -12.53155,12.36408 -12.27376,11.568 -28.56287,22.966 -22.498,13.48345 -24.20916,8.75255 -26.91687,2.62814 -11.55525,-1.70211 -8.7263,-3.51793 z"
       id="path2666" /><path
       style="opacity:1;fill:#ffffff;fill-opacity:1;stroke:none;stroke-width:5.29167;stroke-linecap:round;stroke-linejoin:round;stroke-dasharray:none"
       d="m 37.346413,291.52511 -5.702503,14.66181 0.443956,8.12788 -2.978337,9.13778 1.271992,6.87113 -1.234713,9.07057 3.158517,6.65141 -0.620181,9.95961 5.169868,5.74204 0.95343,9.01408 5.102654,5.14615 3.296335,8.59442 5.478829,3.18902 3.255103,6.90219 5.969099,4.86995 5.984351,7.97932 5.283964,3.04838 3.45957,5.82619 6.354312,3.68099 3.670816,5.83693 5.9691,3.45109 4.610689,6.72654 5.405406,2.94896 4.24807,7.45573 5.64262,2.14861 4.20684,6.18655 7.24222,4.21701 4.46497,5.86573 7.7918,4.23395 7.49018,8.24818 5.44268,1.98085 5.74825,7.0033 7.17105,2.35703 3.37993,6.22158 7.48905,2.39713 6.75083,5.82507 8.66954,3.25623 7.35462,4.59148 6.87847,1.61343 5.53701,1.05284 7.69832,2.83967 6.64774,-1.69335 7.05216,1.15423 8.51817,-1.4084 4.09867,-2.04552 10.58766,-1.66868 -7.15453,-10.41758 -9.60218,0.0348 -4.95778,2.51575 -13.36241,-0.63515 -5.85133,-0.2762 -10.12482,-2.86904 -14.11307,-6.47462 -17.23656,-11.77477 -19.79793,-15.98293 -16.72384,-12.96413 -34.554302,-35.03259 -9.50337,-8.73414 -22.209277,-22.18132 -14.841758,-20.13961 -8.455472,-29.46621 1.50456,-22.45586 2.138438,-20.44281 z"
       id="path2570" /><path
       id="path2496"
       style="opacity:0.99;fill:#ffffff;fill-opacity:1;stroke:#ffffff;stroke-width:43.7203;stroke-linecap:round;stroke-linejoin:round;stroke-dasharray:none"
       d="M 872.60548 210.24805 C 871.33835 210.37049 869.67365 210.62571 867.5215 210.98438 C 849.84999 213.92943 798.49595 227.12572 773.5254 235.13867 C 645.89108 276.09607 534.41375 344.19565 439.30469 439.30469 C 344.37632 534.2331 276.06902 645.95699 235.33203 772.92774 C 225.8142 802.59332 213.22481 852.26976 214.82032 853.86525 C 215.46361 854.50854 236.007 853.847 260.47071 852.39454 C 377.386 845.45301 459.96911 856.38657 566.17774 892.86915 C 592.02733 901.74843 613.96321 908.836 614.92384 908.6172 C 615.88443 908.3984 619.62371 899.38121 623.23243 888.58009 C 631.11933 864.97401 650.08859 824.79015 663.97852 802.26759 C 695.04903 751.88671 739.99507 705.24583 789.15235 672.36915 C 810.46075 658.11794 855.64061 634.91084 876.76759 627.36524 L 891.1504 622.22852 L 885.98439 596.93555 C 878.33382 559.48288 870.61608 510.45392 866.34767 472.17969 C 861.57942 429.42398 860.94702 317.0131 865.2715 280.90235 C 868.3702 255.027 873.84096 220.03642 875.81642 213.45313 C 876.64244 210.70041 876.40687 209.88072 872.60548 210.24805 z M 1178.6836 210.96289 C 1178.3142 211.29407 1179.5006 221.75578 1181.3203 234.21094 C 1190.3553 296.05098 1193.1289 401.11179 1187.3418 462.3418 C 1182.7344 511.08906 1169.0339 595.96725 1161.7363 620.97071 C 1160.9972 623.50304 1163.8125 625.35934 1172.5801 628.12305 C 1201.1251 637.12109 1256.5224 668.40049 1287.2969 692.89649 C 1347.7102 740.98472 1398.4361 812.50964 1423.1289 884.42189 L 1429.9453 904.27345 L 1464.2305 892.78126 C 1543.8862 866.08114 1627.7515 851.38916 1714.9297 848.86134 C 1757.404 847.62976 1800.7637 850.07752 1822.8809 854.95509 C 1828.1502 856.11722 1832.9174 856.61196 1833.4746 856.0547 C 1834.9526 854.57676 1828.5697 827.45422 1818.5 792.43165 C 1801.7874 734.30418 1772.8197 666.09413 1742.375 613.17774 C 1627.1436 412.89201 1435.3931 270.22002 1210.9024 217.73633 C 1193.5522 213.68003 1179.0531 210.63171 1178.6836 210.96289 z M 1430.9102 1139.3906 C 1430.7211 1139.73 1428.2788 1147.3851 1425.4844 1156.4024 C 1422.69 1165.4196 1415.7608 1183.2577 1410.086 1196.041 C 1365.5079 1296.4556 1282.0158 1376.6958 1180.4492 1416.7324 C 1170.2296 1420.7609 1161.5746 1424.2161 1161.2168 1424.4102 C 1160.859 1424.6044 1163.0105 1434.4704 1165.9981 1446.336 C 1196.5759 1567.7794 1201.6662 1716.7748 1179.1113 1830.2422 C 1177.5275 1838.2096 1178.5774 1838.1462 1221.0527 1827.6602 C 1356.1732 1794.3028 1474.5655 1731.2618 1580.8848 1636.0606 C 1690.2465 1538.1352 1777.4193 1398.4699 1818.3828 1255.5488 C 1827.397 1224.0987 1837.0572 1182.7317 1839.6778 1164.3633 C 1841.066 1154.6338 1840.8485 1153.8491 1837.084 1155.0117 C 1830.1252 1157.1608 1794.6714 1162.7851 1773.9531 1165.0274 C 1684.7794 1174.6782 1552.3643 1165.6926 1450.6758 1143.0899 C 1439.994 1140.7155 1431.0993 1139.0512 1430.9102 1139.3906 z M 617.34766 1141.4375 C 617.02798 1141.0218 602.40931 1143.3044 584.86134 1146.5098 C 482.13148 1165.2755 407.02047 1172.5462 330.17188 1171.1641 C 273.2594 1170.1406 244.38983 1166.5953 218.43946 1157.4395 C 213.41685 1155.6674 208.81388 1154.2168 208.20899 1154.2168 C 203.71683 1154.2168 222.00486 1233.7908 237.09766 1279.9121 C 295.29366 1457.7506 410.15346 1609.0905 565.71876 1712.9043 C 649.39823 1768.7465 742.57422 1808.6007 843.80275 1831.8496 C 858.83159 1835.3013 871.99933 1838.1962 873.06446 1838.2832 C 874.13193 1838.3699 874.32892 1833.7801 873.50392 1828.0567 C 858.99415 1727.3991 858.2921 1643.028 871.12501 1542.2344 C 876.08528 1503.275 885.36751 1448.0381 889.53712 1432.666 L 891.38868 1425.8418 L 872.51368 1418.7422 C 759.47189 1376.2217 664.58377 1278.8881 626.01563 1165.8887 C 621.56769 1152.8568 617.66734 1141.8532 617.34766 1141.4375 z "
       transform="scale(0.26458333)" /><ellipse
       style="display:inline;fill:#99ff55;stroke:#000000;stroke-width:5.29167;stroke-linecap:round;stroke-linejoin:round;stroke-dasharray:none"
       id="path498"
       cx="270.93332"
       cy="270.93332"
       rx="38.386662"
       ry="39.216492" /><circle
       style="fill:none;stroke:#000000;stroke-width:5.29167;stroke-linecap:round;stroke-linejoin:round;stroke-dasharray:none"
       id="ellipse1054"
       cx="270.93332"
       cy="270.93332"
       r="108.92574" /><circle
       style="fill:none;stroke:#000000;stroke-width:5.29167;stroke-linecap:round;stroke-linejoin:round;stroke-dasharray:none"
       id="circle1056"
       cx="270.93332"
       cy="270.93332"
       r="221.99246" /><path
       style="fill:none;stroke:#000000;stroke-width:2.64583333;stroke-linecap:round;stroke-linejoin:round;stroke-dasharray:none"
       d="m 53.413294,228.25022 c 63.005636,-6.02652 84.015976,5.97991 112.029886,14.99642"
       id="path1416"
       sodipodi:nodetypes="cc" /><path
       style="fill:none;stroke:#000000;stroke-width:2.64583333;stroke-linecap:round;stroke-linejoin:round;stroke-dasharray:none"
       d="m 51.655963,301.85365 c 19.205371,10.097 58.097607,8.81088 113.739297,-2.15993"
       id="path1596"
       sodipodi:nodetypes="cc" /><path
       style="fill:none;stroke:#000000;stroke-width:2.64583;stroke-linecap:round;stroke-linejoin:round;stroke-dasharray:none"
       d="M 377.33093,241.62993 C 420.3968,224.20916 469.53391,223.5065 487.06566,229.04105"
       id="path1598"
       sodipodi:nodetypes="cc" /><path
       style="fill:none;stroke:#000000;stroke-width:2.64583;stroke-linecap:round;stroke-linejoin:round;stroke-dasharray:none"
       d="m 377.57985,299.37449 c 37.03982,8.92278 82.04007,11.53819 112.51277,3.69492"
       id="path1600"
       sodipodi:nodetypes="cc" /><path
       style="fill:none;stroke:#000000;stroke-width:2.64583;stroke-linecap:round;stroke-linejoin:round;stroke-dasharray:none"
       d="m 237.9443,374.9267 c -9.06183,39.64038 -11.077,79.28474 -4.23358,113.45732"
       id="path1602"
       sodipodi:nodetypes="cc" /><path
       style="fill:none;stroke:#000000;stroke-width:2.64583;stroke-linecap:round;stroke-linejoin:round;stroke-dasharray:none"
       d="m 304.93377,375.36043 c 10.90167,38.60349 11.82796,77.95487 4.47262,113.64137"
       id="path1604"
       sodipodi:nodetypes="cc" /><path
       style="fill:none;stroke:#000000;stroke-width:2.64583;stroke-linecap:round;stroke-linejoin:round;stroke-dasharray:none"
       d="M 238.02095,167.13247 C 229.43301,129.44341 225.83846,91.059705 234.06698,52.569776"
       id="path1606"
       sodipodi:nodetypes="cc" /><path
       style="fill:none;stroke:#000000;stroke-width:2.64583;stroke-linecap:round;stroke-linejoin:round;stroke-dasharray:none"
       d="m 305.08315,166.68849 c 8.40332,-33.38946 11.61884,-73.245774 4.53631,-113.211291"
       id="path1608"
       sodipodi:nodetypes="cc" /><path
       style="fill:none;stroke:#000000;stroke-width:5.29167;stroke-linecap:round;stroke-linejoin:round;stroke-dasharray:none"
       d="m 243.77289,493.53239 c 1.23729,5.43044 4.51375,14.18787 11.41573,16.44099 10.24776,3.34533 18.10733,5.56536 36.27381,-0.68849 6.24577,-2.15012 6.80291,-10.37478 8.32838,-17.22049"
       id="path1643"
       sodipodi:nodetypes="cssc" /><path
       style="fill:none;stroke:#000000;stroke-width:5.29167;stroke-linecap:round;stroke-linejoin:round;stroke-dasharray:none"
       d="m 49.581686,236.49578 -11.791076,3.70303 c -9.600749,3.01516 -9.139217,45.59079 -2.106394,48.66097 l 14.273127,6.23095"
       id="path1708"
       sodipodi:nodetypes="cssc" /><path
       style="fill:none;stroke:#000000;stroke-width:5.29167;stroke-linecap:round;stroke-linejoin:round;stroke-dasharray:none"
       d="m 244.89887,48.864945 c 0,0 3.23043,-9.367066 6.78302,-12.543695 8.96411,-8.015457 27.654,-6.682556 37.29275,-2.255075 5.58051,2.563365 9.91556,14.963135 9.91556,14.963135"
       id="path1710"
       sodipodi:nodetypes="cssc" /><path
       style="fill:none;stroke:#000000;stroke-width:5.29167;stroke-linecap:round;stroke-linejoin:round;stroke-dasharray:none"
       d="m 490.49871,236.41714 c 0,0 8.91283,2.54851 12.2249,3.58111 12.71611,3.96449 14.4494,40.13373 2.95364,51.59753 -2.88717,2.87914 -13.92802,4.77953 -13.92802,4.77953"
       id="path1732"
       sodipodi:nodetypes="cssc" /><path
       style="fill:#000000;stroke:none;stroke-width:0.264583"
       d="m 257.60118,30.238155 c -2.89851,0.296333 -6.78524,-2.523331 -9.78958,-3.278452 -2.74558,-0.690113 -5.23716,0.887942 -7.9375,0.603515 -2.68632,-0.282575 -5.07974,-2.298727 -7.9375,-2.571803 -3.6404,-0.347874 -6.14177,1.38602 -9.525,1.771015 -2.35612,0.268181 -4.50638,-1.292728 -6.87917,-1.217983 -2.34473,0.07387 -5.31098,0.849894 -7.40833,1.87325 -1.1004,0.537104 -1.9767,1.550723 -3.175,1.874308 -2.06349,0.557477 -4.45717,-0.456406 -6.61458,0.02778 -2.15054,0.482336 -4.53946,1.198298 -6.35,2.489729 -1.23799,0.882915 -2.29209,2.447661 -3.72772,2.998523 -2.14683,0.823913 -4.81674,0.361686 -7.1202,1.167077 -3.29697,1.152525 -4.8633,4.0767 -7.69646,5.633773 -2.30479,1.266825 -5.27765,1.156229 -7.64937,2.544762 -2.72918,1.597819 -4.14126,4.641585 -6.6421,6.209242 -2.12619,1.332441 -5.07947,1.270264 -7.38082,2.773626 -2.56672,1.6764 -3.40492,4.534694 -5.61551,6.284383 -1.72509,1.365515 -4.60508,1.532732 -6.55135,2.76913 -2.95169,1.874837 -3.97828,4.937124 -6.40927,7.126287 -1.93569,1.743075 -5.21176,2.045758 -7.35277,3.864768 -2.14286,1.820598 -2.76436,4.568031 -4.60904,6.423554 -1.97591,1.987285 -5.18292,2.541323 -7.27366,4.63206 -1.94998,1.949715 -2.43655,4.583906 -4.13332,6.556904 -1.81372,2.108729 -4.97205,2.946135 -6.97918,5.061214 -2.08994,2.202392 -2.54053,5.142703 -4.391818,7.352773 -1.838854,2.19498 -4.864099,3.20543 -6.720945,5.62213 -1.658938,2.15926 -1.867429,5.01015 -3.357298,7.10591 -1.849967,2.60245 -5.217848,3.76264 -6.991085,6.71777 -1.217612,2.02856 -1.211792,4.67413 -2.547673,6.53389 -1.615281,2.24922 -4.355306,3.36153 -5.95286,5.82586 -1.657085,2.55587 -1.658937,5.3385 -3.018102,7.92718 -0.821531,1.56475 -2.63181,2.61567 -3.810529,3.91398 -2.773627,3.05541 -2.551377,6.32725 -3.91107,9.85441 -0.937419,2.43178 -4.104482,4.22063 -5.460736,6.61485 -1.477168,2.60693 -0.854868,5.52106 -2.06322,7.93749 -1.496748,2.9935 -4.473311,4.94136 -5.870575,8.20209 -0.883973,2.06348 -0.03387,4.74133 -1.097227,6.61352 -1.43801,2.5318 -3.966369,4.27144 -4.974696,7.14481 -0.502708,1.43272 -1.171839,3.24379 -1.227666,4.7625 -0.04048,1.09987 0.610658,2.3966 0.244475,3.43958 -0.438415,1.24857 -1.702065,2.10159 -2.4257,3.175 -1.103048,1.63619 -1.889919,3.66263 -2.424377,5.55625 -0.623358,2.20954 0.618331,4.81251 0.01693,6.87917 -0.784754,2.69822 -3.338248,4.6908 -3.830373,7.67292 -0.516731,3.13081 1.655234,7.06305 0.525728,9.78958 -0.554038,1.3372 -3.559704,7.40172 -1.075003,8.20155 1.330061,0.4281 2.972859,-1.36948 3.929592,-2.08253 2.691871,-2.00581 5.907881,-2.8837 8.995833,-4.10792 1.166019,-0.46223 2.951956,-0.76994 3.742795,-1.81928 0.97499,-1.29328 1.127919,-3.66924 1.515269,-5.2189 0.993775,-3.97458 2.049463,-7.93248 3.042708,-11.90625 2.686579,-10.74553 6.536267,-20.74043 10.752137,-30.95625 5.114131,-12.39256 13.359077,-23.32805 20.352808,-34.66042 1.894152,-3.06916 2.691606,-6.84159 4.720166,-9.78958 4.681802,-6.80455 10.761662,-12.56268 15.202962,-19.57917 0.90858,-1.4351 0.0238,-3.09192 0.95858,-4.44261 1.56766,-2.2651 5.0128,-2.40639 6.72651,-4.57703 1.68169,-2.13043 1.80922,-5.39221 3.44831,-7.36918 1.60946,-1.94124 4.67625,-2.67943 6.52092,-4.52384 1.9341,-1.933842 2.51804,-4.944801 4.31774,-6.74185 1.3245,-1.322652 3.45519,-1.48934 4.95326,-2.616729 1.52532,-1.148027 3.1496,-2.536561 4.22169,-4.12459 0.76967,-1.140089 1.09326,-2.658268 2.15715,-3.563143 1.73328,-1.474523 4.42674,-1.523736 6.32116,-2.967832 2.42517,-1.848379 3.29486,-4.672541 5.36522,-6.58442 1.96718,-1.817158 5.58006,-2.158471 7.85363,-3.894402 1.86848,-1.426898 2.59662,-3.670035 4.27884,-5.132123 1.76027,-1.530085 5.0292,-1.758156 7.10856,-2.953808 2.49343,-1.433777 3.50176,-3.79042 5.62504,-5.400675 1.3843,-1.049602 3.60654,-0.963083 5.22287,-1.362339 1.93649,-0.478631 4.2553,-1.816629 5.74146,-3.129492 0.92234,-0.814916 1.55893,-2.138627 2.73579,-2.610643 2.22489,-0.89244 5.0382,-0.402431 7.39775,-1.305983 2.47068,-0.945886 4.76039,-3.685911 7.14402,-4.255559 2.33151,-0.557212 5.16334,0.253207 7.67265,-0.340783 2.19736,-0.519906 4.17565,-2.504281 6.35,-2.75881 2.23652,-0.261938 4.34181,1.283494 6.61458,1.212056 2.71357,-0.08546 5.3848,-1.974056 7.9375,-2.025914 1.28244,-0.02593 2.50957,1.067329 3.70417,1.449387 2.68605,0.859102 4.83103,1.25386 7.67291,1.170517 1.10967,-0.03281 2.37067,-0.819944 3.43959,-0.584994 m 41.80416,-9.729787 c 2.01613,4.350014 7.73377,11.516253 12.17084,13.493749 v -1.322916 c 3.16177,0 6.24945,-0.186002 9.26041,-1.248569 1.28588,-0.454025 2.37067,-1.54014 3.70417,-1.843352 1.43139,-0.325438 2.39977,0.54901 3.70416,0.864658 1.34144,0.324644 3.1115,0.269611 4.49792,0.306652 2.27013,0.06059 4.80219,-1.286933 6.87917,-1.115218 2.01348,0.166687 4.03489,2.405062 6.08541,2.926291 1.46844,0.373327 3.25173,0.855663 4.7625,0.899319 1.04246,0.0299 2.47121,-0.43815 3.43959,-0.07726 1.37848,0.513821 2.32833,2.018507 3.43958,2.919148 1.25412,1.017059 3.00037,1.838325 4.49792,2.435225 1.75948,0.700617 4.23598,0.207433 5.81554,1.236398 2.2516,1.464733 3.43429,4.27355 5.82612,5.762096 2.28071,1.420018 5.86846,1.612635 7.82638,3.266545 2.1246,1.792288 3.30993,4.607719 5.67795,6.367992 1.90236,1.413139 4.5773,1.313656 6.29444,2.804318 2.96863,2.580746 4.04284,5.889889 7.7179,7.98486 2.32039,1.322388 7.85431,2.562007 6.497,6.400317 5.34988,3.753908 9.60554,7.706472 14.66966,11.856726 9.13871,7.489827 18.1329,14.496927 26.31911,23.058317 5.35252,5.59779 9.6678,11.51747 15.03884,17.09807 1.60867,1.67031 4.40438,2.52196 5.89928,3.9605 1.73831,1.67296 2.3151,4.42278 4.11692,6.22089 1.56368,1.5621 3.92641,1.9005 5.41073,3.30411 1.67745,1.58433 2.23837,4.22249 3.88143,5.978 1.46579,1.56792 3.73857,2.20345 5.11175,3.7629 1.53194,1.74149 1.96586,4.41881 3.54277,6.30423 1.20386,1.43774 3.56923,2.1418 4.45029,3.73962 1.00013,1.81345 0.97367,4.20132 2.0664,6.06054 1.12977,1.92141 3.32846,3.20146 4.32329,5.05064 0.84667,1.57559 0.0291,3.80788 0.65881,5.5327 0.91017,2.48735 3.1803,4.96464 3.76502,7.40833 0.60061,2.52413 -0.21166,5.36575 0.1323,7.9375 0.25664,1.93701 1.83356,3.45837 2.19339,5.29167 0.34396,1.75074 -1.07685,3.32131 -1.17475,5.02708 -0.11112,1.96268 -0.32279,4.42568 0.0926,6.35 0.23548,1.0967 0.9472,2.02644 1.00541,3.175 0.082,1.57744 -1.2991,3.30597 -1.84679,4.7625 -0.62177,1.65364 -1.19856,6.73444 -0.42598,8.36242 0.52123,1.09564 3.01625,1.78541 4.07459,2.25769 3.76502,1.67825 6.64429,4.42823 10.52837,5.7739 0.47625,-2.47015 2.62327,-4.63644 2.76615,-7.2328 0.10054,-1.78117 -1.14486,-4.21588 -0.77709,-5.98621 0.66675,-3.20807 2.74902,-5.75522 2.82311,-9.26042 0.0582,-2.63736 -1.81505,-5.2369 -1.7489,-7.67291 0.0238,-0.93081 0.71967,-1.74123 0.91017,-2.64584 0.61912,-2.9075 0.55562,-5.8203 -0.005,-8.73125 -0.3519,-1.82642 -1.94734,-3.23162 -2.2913,-5.02708 -0.49741,-2.58286 0.74877,-5.52529 0.0847,-8.20208 -0.83344,-3.35545 -3.74914,-5.44328 -4.73339,-8.46667 -0.68792,-2.11905 0.15081,-4.4786 -0.81492,-6.61458 -0.80963,-1.79335 -1.76477,-3.5642 -3.11415,-5.0128 -0.80433,-0.86386 -1.96585,-1.3716 -2.58762,-2.40056 -1.68804,-2.79665 -1.68275,-5.87825 -3.99521,-8.46138 -1.41023,-1.57268 -3.54013,-2.21906 -4.87892,-3.73962 -1.73302,-1.96876 -2.09814,-4.9911 -3.97139,-7.06331 -1.651,-1.8288 -4.2545,-2.32781 -5.83936,-4.09364 -1.56633,-1.74651 -2.03464,-4.23254 -3.79677,-5.99545 -1.69862,-1.69889 -4.40002,-2.20002 -5.94254,-3.79757 -1.61925,-1.67375 -2.1881,-4.13253 -3.91319,-5.84994 -1.71714,-1.71026 -4.32593,-2.25636 -5.88433,-3.89546 -1.67746,-1.76556 -2.30452,-4.25079 -4.11691,-6.00128 -1.57163,-1.51897 -3.91584,-1.90447 -5.40809,-3.30411 -1.50548,-1.40997 -2.05316,-3.84969 -3.41577,-5.47132 -1.91558,-2.27621 -4.72546,-2.64319 -6.69396,-4.58602 -1.93675,-1.91162 -2.55852,-4.799017 -4.59052,-6.746086 -1.86266,-1.783821 -4.47146,-2.028825 -6.32089,-3.55944 -2.11667,-1.750483 -2.82311,-4.796895 -4.9874,-6.665383 -1.92352,-1.658672 -4.78896,-2.074068 -6.58019,-3.66342 -2.50295,-2.223823 -3.43958,-5.318125 -6.42937,-7.293239 -1.59544,-1.054365 -3.86556,-1.12104 -5.28638,-2.232025 -2.28599,-1.786996 -3.54012,-4.916488 -5.8711,-6.865673 -1.8415,-1.539875 -4.21746,-1.474258 -6.02721,-2.761191 -2.032,-1.446213 -3.05329,-4.402138 -5.04031,-6.1087 -2.21985,-1.907646 -4.79954,-2.012685 -7.13846,-3.399102 -2.21456,-1.31154 -3.50308,-4.470929 -5.58535,-6.170877 -2.6379,-2.153179 -5.73088,-2.007658 -8.43227,-3.630877 -2.47915,-1.491456 -3.96081,-4.498974 -6.62517,-6.093354 -2.76489,-1.654439 -6.32089,-1.27582 -8.95085,-2.728912 -2.39448,-1.322652 -3.97404,-3.609181 -6.65956,-4.740275 -3.47663,-1.464733 -6.56961,-0.646377 -10.05417,-1.417637 -2.39183,-0.529961 -4.33387,-2.615671 -6.87917,-3.035829 -2.4712,-0.407961 -5.47423,-0.440214 -7.9375,0.03069 -1.11389,0.212989 -2.01347,0.901435 -3.175,0.955674 -1.40229,0.06535 -2.38918,-0.704056 -3.70416,-0.955674 -2.22515,-0.425212 -5.43454,-0.375047 -7.67292,-0.0336 -2.46856,0.376238 -4.33652,2.210329 -6.61458,2.963863 -2.1934,0.725752 -4.86833,-0.132821 -7.14375,0.211137 -2.44211,0.369359 -4.83923,1.816365 -6.87917,3.118644 m -59.53124,-5.469202 c 5.44697,-0.948531 9.7409,2.382837 12.7201,6.527535 0.8001,1.113102 4.31615,5.820833 1.80314,6.530446 -5.28399,1.491985 -10.40051,-2.8194 -13.49269,-6.454775 -1.73858,-2.044171 -5.59382,-5.808662 -1.03055,-6.603206 m -13.22917,0.787135 c 4.19259,-0.440266 7.93856,2.521479 10.47009,5.475817 2.79797,3.265752 3.87959,5.427927 -1.20967,6.036733 -4.75562,0.568589 -9.60226,-2.633133 -12.58782,-6.036733 -0.64744,-0.738188 -3.20781,-2.478881 -2.71145,-3.600979 0.71596,-1.619515 4.55533,-1.718998 6.03885,-1.874838 m 93.92708,1.067859 c 4.42119,-0.84455 9.35302,0.473075 12.35869,3.87985 0.89429,1.012824 5.27049,5.943599 2.4421,6.797939 -4.67254,1.411023 -10.04094,-1.210998 -13.47788,-4.195233 -2.57968,-2.239169 -7.18872,-5.361781 -1.32291,-6.482556 m 13.75833,0.439208 c 6.35265,-3.056996 13.80067,1.4986 16.04698,7.408333 0.43127,1.129771 1.87589,3.734329 1.31233,4.942946 -0.71437,1.530085 -4.92918,-0.02487 -5.98223,-0.508 -4.46087,-2.049463 -9.93775,-6.999552 -11.37708,-11.843279 M 244.90149,30.0503 c 2.63922,-0.360627 7.84516,0.574675 9.24904,3.174735 0.86889,1.609725 -2.20001,4.760648 -2.84877,6.273271 -0.28072,0.65405 -0.59372,1.467379 -1.37451,1.653645 -1.03981,0.247915 -1.9005,-1.224227 -2.40003,-1.917964 -1.36896,-1.900238 -2.25716,-4.082521 -3.44752,-6.085416 -0.34264,-0.576263 -1.20809,-1.575065 -0.94298,-2.298171 0.22887,-0.624417 1.21073,-0.724429 1.76477,-0.8001 m -45.50833,2.139421 c 4.15555,-0.795073 7.78219,1.786995 10.84792,4.239683 2.9292,2.34315 4.12988,4.621477 -0.52917,5.611812 -4.91966,1.045898 -9.24137,-0.680508 -13.22917,-3.383756 -0.88503,-0.600075 -3.53589,-1.930135 -3.53589,-3.148277 0,-2.16244 4.88924,-3.021806 6.44631,-3.319462 m 96.04375,0.784225 c 4.19364,-0.801159 7.98777,0.686064 11.11249,3.426089 1.76213,1.548342 4.88686,4.190206 1.05834,5.290343 -2.91836,0.83873 -7.25488,1.406261 -9.97744,-0.363272 -1.87325,-1.217084 -3.24644,-3.417888 -5.04825,-4.820709 -0.51064,-0.399256 -1.0795,-1.014941 -0.89694,-1.732227 0.23548,-0.928422 2.89984,-1.637241 3.7518,-1.800224 m 45.8126,0.06958 c 1.43404,-0.635265 3.1406,0.254265 4.45823,0.729192 4.52702,1.633272 6.7601,4.234126 8.24706,8.636264 0.44979,1.3335 1.85208,5.96847 -0.0847,6.709039 -1.14564,0.438679 -2.667,-0.497946 -3.66448,-0.967052 -4.00579,-1.884627 -6.45318,-5.711825 -7.85283,-9.710737 -0.39423,-1.123685 -2.76225,-4.661429 -1.10331,-5.396706 m -155.87927,4.953529 c 3.67374,-0.60034 6.95458,1.605756 10.05417,3.221831 0.98504,0.513556 2.94428,1.461294 2.97603,2.768071 0.0537,2.199481 -5.5954,3.35862 -7.20936,3.627437 -3.59463,0.598752 -7.34325,-1.710002 -10.31875,-3.424502 -0.8128,-0.468312 -2.88158,-0.968639 -2.96916,-2.0701 -0.19896,-2.501106 5.68325,-3.831431 7.46707,-4.122737 m 172.01885,1.748102 c 1.18004,-0.272521 3.17235,0.833967 4.191,1.350962 4.03754,2.051315 6.87387,5.986727 6.88181,10.573279 0.003,1.252802 0.66675,5.399881 -0.83344,5.900737 -1.17475,0.392377 -3.03477,-1.008062 -3.92906,-1.651 -3.27819,-2.353468 -6.19389,-6.738408 -6.34735,-10.86432 -0.0423,-1.126331 -1.65629,-4.918869 0.037,-5.309658 m -184.45426,5.393002 c 2.79876,-0.325702 6.2947,1.559983 8.73125,2.739231 0.82735,0.400579 2.47756,1.033462 2.47756,2.169848 0,0.816768 -1.10146,1.496483 -1.68408,1.903147 -2.16799,1.513152 -4.84055,1.982788 -7.40807,2.281502 -2.8522,0.332052 -6.24813,-1.436952 -8.73124,-2.629164 -0.76571,-0.367506 -2.41697,-0.470165 -2.50138,-1.548606 -0.0775,-0.993775 1.01309,-1.763183 1.70868,-2.27674 2.20319,-1.626658 4.72573,-2.32701 7.40728,-2.639218 m 198.78674,3.780366 c 1.56898,-0.769144 3.5216,0.775229 4.67783,1.649942 3.93436,2.976298 5.44513,6.811168 4.98211,11.684264 -0.0952,1.008856 0.18785,4.169568 -0.83344,4.665133 -1.09802,0.5334 -3.07975,-1.081088 -3.88409,-1.707885 -3.57187,-2.779713 -5.11174,-7.063846 -5.30224,-11.423914 -0.0503,-1.122892 -0.96309,-4.219311 0.35983,-4.86754 m -200.63883,7.777956 c -1.89256,6.37196 -10.12295,6.159764 -15.08124,4.854839 -1.09908,-0.289189 -4.70562,-1.083733 -5.25939,-2.059252 -1.05781,-1.862666 3.2123,-4.183326 4.46564,-4.715139 5.13476,-2.177521 11.10509,-0.5842 15.87499,1.919552 m 214.0876,1.751277 c 1.35996,-0.543983 3.19881,1.040077 4.14867,1.84441 3.64595,3.089275 4.73604,6.881283 4.53231,11.485562 -0.0476,1.067859 -0.0106,4.372769 -1.10861,4.820179 -1.42346,0.579702 -3.2385,-1.140618 -4.15131,-2.033587 -3.05858,-2.989527 -4.56935,-7.020983 -4.51908,-11.253258 0.0159,-1.147233 -0.15611,-4.362979 1.09802,-4.863306 m -239.22301,4.421187 c 2.8911,-0.502443 6.24258,0.566473 8.99583,1.372129 0.74401,0.217752 2.46089,0.639234 2.88766,1.335617 0.50324,0.821002 -0.56885,1.93675 -1.08161,2.47306 -1.651,1.726142 -4.20344,3.196696 -6.56855,3.638286 -3.15145,0.588168 -5.79993,-0.425715 -8.73125,-1.253332 -0.97499,-0.275431 -2.77627,-0.218545 -3.3909,-1.152789 -0.64188,-0.975254 0.25612,-2.058988 0.9025,-2.747169 1.71847,-1.829329 4.51696,-3.236912 6.98632,-3.665802 M 397.1506,68.23443 c 1.27,-0.614362 3.19088,0.888471 4.11956,1.606815 4.13809,3.205427 4.2889,7.215187 4.23334,11.990651 -0.0106,0.898261 0.12171,4.225396 -0.68792,4.720961 -1.34937,0.824177 -3.80735,-1.634332 -4.60375,-2.451894 -3.31787,-3.4163 -3.70417,-7.275512 -3.70417,-11.794066 0,-0.98769 -0.45243,-3.541712 0.64294,-4.072467 m -264.43251,4.691592 c 3.21205,-0.613833 6.68999,0.294746 9.78959,1.034785 0.88079,0.210344 2.60799,-0.02514 3.1533,0.863336 0.59981,0.976841 -0.70167,2.400035 -1.31551,3.02842 -2.05396,2.10185 -4.59528,3.019425 -7.39404,3.578754 -2.90248,0.579967 -5.65944,-0.467518 -8.46667,-1.02817 -0.86016,-0.171715 -2.38522,-0.200819 -2.89904,-1.03558 -0.62415,-1.013883 0.41011,-2.143918 1.0586,-2.826279 1.54305,-1.623747 3.82667,-3.185847 6.07377,-3.615266 m 276.78326,4.822296 c 1.10596,-0.185473 2.54794,0.894291 3.3999,1.488016 4.16454,2.900362 4.25185,7.031831 4.24391,11.591395 -0.003,1.215232 0.26723,5.507302 -1.33879,5.698596 -1.2991,0.154517 -2.86014,-1.420548 -3.66448,-2.262981 -2.8866,-3.024981 -4.28625,-7.547239 -3.80471,-11.637698 0.14288,-1.208616 -0.54768,-4.590256 1.16417,-4.877328 m -287.89576,5.509683 c 2.81967,-0.599546 6.79741,-0.187325 9.525,0.644525 0.69162,0.210872 2.45031,0.294481 2.82417,0.995627 0.43127,0.808831 -0.86995,2.186252 -1.33589,2.753518 -1.76582,2.150004 -4.59898,3.596481 -7.30911,4.134115 -2.794,0.554302 -6.03594,0.0725 -8.73125,-0.683155 -0.75565,-0.211666 -2.1881,-0.108214 -2.62308,-0.888206 -0.46223,-0.828675 0.45667,-1.941512 0.92948,-2.560637 1.53961,-2.01586 4.20979,-3.862123 6.72068,-4.395787 M 421.4076,87.79243 c 1.45256,-0.303213 2.99244,1.319741 3.89467,2.241549 3.16177,3.236648 3.93435,6.995583 3.25437,11.377081 -0.14552,0.9263 -0.70379,4.80668 -1.68275,4.99083 -1.16946,0.22014 -2.64054,-1.36895 -3.37344,-2.09073 -3.27818,-3.22184 -3.81264,-7.267046 -3.70681,-11.631347 0.0317,-1.289315 -0.0318,-4.543954 1.61396,-4.887383 m -13.96832,3.524881 c -4.54025,0.751417 -0.53689,-5.163676 0.20659,-0.498543 m -296.88819,3.538503 c 2.74611,-0.524933 5.70521,0.161396 8.46666,0.174889 0.85699,0.0042 2.5916,-0.131233 3.15728,0.684742 0.66225,0.95541 -0.40931,2.548467 -0.99272,3.259931 -1.93675,2.361407 -4.68074,4.171157 -7.72081,4.699257 -2.57175,0.44688 -5.13609,-0.1434 -7.67291,-0.39687 -0.85196,-0.0852 -2.32622,0.24421 -2.9681,-0.46937 -0.79507,-0.8845 0.263,-2.28389 0.78502,-3.01519 1.57242,-2.202127 4.2082,-4.414043 6.94558,-4.937389 m 327.02498,23.193369 c -5.98752,-1.91638 -7.28927,-9.7962 -6.46641,-15.08125 0.17991,-1.15861 -0.3863,-3.757078 0.75935,-4.48574 1.73302,-1.10199 4.65667,2.46089 5.51921,3.6269 2.98714,4.0394 2.26483,11.62288 0.18785,15.94009 m -336.2854,-11.54139 c 2.48894,-0.49398 5.40306,-0.10451 7.9375,-0.10028 0.83397,0.001 2.09471,-0.15663 2.63816,0.644 0.7792,1.1475 -0.46249,2.71965 -1.13956,3.58537 -2.02988,2.59583 -4.84822,4.54766 -8.11318,5.19536 -2.48391,0.49292 -5.183721,-0.0439 -7.672921,-0.15399 -0.731308,-0.0323 -2.124869,0.22754 -2.627048,-0.47122 -0.621241,-0.8644 0.510646,-2.54662 0.978429,-3.24327 1.86399,-2.77574 4.684183,-4.79848 7.99862,-5.45597 m 341.85753,2.19128 c 1.34673,-0.14155 2.7305,1.53141 3.50837,2.42702 3.42106,3.94044 2.95804,6.99347 2.11931,11.68559 -0.19579,1.08823 -0.17727,5.05486 -1.69068,5.0927 -1.18005,0.0296 -2.37861,-1.63142 -3.03477,-2.44687 -2.83898,-3.51843 -2.8575,-7.74991 -2.31775,-11.90625 0.1561,-1.20676 -0.39952,-4.66142 1.41552,-4.85219 m -345.826281,9.95495 c 4.239161,-0.50033 6.372491,1.17051 3.119701,4.95141 -1.980934,2.3024 -5.032638,4.43018 -8.146784,4.73472 -2.279385,0.22304 -4.600839,-0.16537 -6.879166,0.10345 -0.751417,0.0884 -2.032265,0.48657 -2.598209,-0.23521 -1.039283,-1.32557 0.919163,-3.85075 1.716088,-4.84399 3.45096,-4.30001 7.857331,-4.12883 12.78837,-4.71038 M 457.62617,137.3944 c -5.68854,-1.66555 -6.20448,-8.2976 -6.08277,-13.22917 0.0291,-1.11865 0.58473,-5.25515 1.66952,-5.75706 1.56898,-0.72708 4.04283,2.56619 4.69636,3.64437 2.6617,4.38361 1.43404,10.75663 -0.28311,15.34186 m 5.02708,-9.78958 c 6.40557,1.76927 7.6544,9.60702 5.63827,15.08125 -0.33337,0.9054 -0.30162,3.4499 -1.22502,3.8817 -1.85473,0.8673 -4.01637,-2.61038 -4.65402,-3.8817 -2.09814,-4.1955 -1.75948,-10.92729 0.24077,-15.08125 m -364.331228,1.5875 c -1.054365,3.81158 -3.339306,0.18362 0,0 m -8.995833,1.66396 c 4.698735,-0.61013 4.228306,2.13175 1.745192,5.21123 -2.233084,2.76966 -5.579798,4.81357 -9.153525,5.24696 -1.431925,0.17356 -6.710098,0.88106 -7.777956,0.0413 -0.77761,-0.61172 -0.257704,-1.93728 0.0725,-2.63842 1.008856,-2.14286 2.572279,-3.96664 4.53046,-5.31681 3.072606,-2.11851 6.995319,-2.07803 10.583333,-2.54423 m 358.774977,0.71729 h 0.26458 l 0.26459,0.26458 v 0.52917 c -0.59531,-0.12515 -0.8255,-0.22754 -0.52917,-0.79375 m 24.88671,6.0153 c 1.67481,-0.22781 3.06387,1.51712 3.89466,2.71595 2.51355,3.6232 2.83898,7.59751 1.09538,11.64166 -0.44979,1.04061 -0.74083,3.89573 -2.1246,4.07935 -1.38907,0.18415 -2.63525,-1.77112 -3.26761,-2.75643 -2.24102,-3.48562 -2.17487,-7.55994 -1.143,-11.37708 0.3175,-1.18375 -0.1561,-4.07273 1.54517,-4.30345 m -391.334603,6.49578 c 5.222874,-0.60801 1.122098,5.53112 -0.652198,7.31044 -3.164417,3.17368 -9.285023,4.51803 -13.635037,4.24392 -4.201583,-0.26485 0.424392,-6.28518 1.703387,-7.5819 3.259402,-3.30465 8.24521,-3.46763 12.583848,-3.97246 m 401.134763,3.34196 c 1.27265,-0.18336 2.78871,1.80207 3.45546,2.66805 2.794,3.63908 2.45798,7.88406 0.80169,11.90599 -0.38894,0.93927 -1.34937,3.97695 -2.46062,4.11109 -1.56634,0.18892 -2.7305,-1.91796 -3.31788,-3.05276 -1.88912,-3.65998 -1.49225,-7.59354 -0.31485,-11.37708 0.34925,-1.12263 0.23283,-4.02378 1.8362,-4.25529 M 73.715773,157.58237 c 5.303573,-0.77893 1.191419,5.55017 -0.53975,7.32473 -3.326871,3.41021 -9.287404,5.2107 -14.007305,5.00512 -3.434821,-0.14949 0.751945,-6.32645 1.668462,-7.37209 3.053556,-3.48429 8.543131,-4.32091 12.878593,-4.95776 M 492.022,177.87565 c -2.27806,-0.64109 -3.07975,-3.19987 -3.51631,-5.29167 -1.00012,-4.82441 0.84931,-9.85202 2.72256,-14.2875 1.41552,0.33999 2.42888,1.03055 3.40519,2.11773 5.39485,6.00419 0.89165,11.99594 -2.61144,17.46144 m 7.74436,-7.20963 c 1.8997,-0.50059 3.9317,3.94044 4.14337,5.35754 0.72231,4.81092 -0.62706,8.80137 -4.22804,12.17084 -0.71967,0.6723 -1.58485,2.09656 -2.60879,2.28282 -1.64571,0.29951 -2.31775,-3.85021 -2.53471,-4.92866 -0.83079,-4.1357 1.32292,-8.13011 3.175,-11.64166 0.4445,-0.83794 1.02394,-2.96942 2.05317,-3.24088 m -432.151614,0.54821 c 2.881048,0.19765 -0.22225,5.9436 -1.002506,6.88102 -2.912004,3.49912 -7.029185,5.09614 -11.417299,5.75442 -0.999596,0.15002 -2.412471,0.77312 -3.400425,0.54505 -2.632075,-0.60802 0.831056,-6.11347 1.627981,-7.04824 3.062023,-3.59225 9.381595,-6.46192 14.192249,-6.13225 m 438.424884,14.00413 c 2.05052,-0.0508 3.16177,4.63736 3.18029,6.15104 0.0609,4.98528 -1.97379,7.93247 -5.82083,11.06064 -0.83344,0.6776 -2.00555,2.20556 -3.15913,2.23414 -1.75948,0.0437 -2.12725,-4.1439 -2.09815,-5.35728 0.10319,-4.21164 2.50296,-8.22299 5.18055,-11.33211 0.69585,-0.80671 1.49754,-2.72653 2.71727,-2.75643 m -446.611356,0.41725 c 4.492625,-0.77126 1.427956,5.36522 0.124619,7.0567 -2.764896,3.58828 -8.830469,6.30026 -13.353521,6.58098 -3.72057,0.23072 -0.265112,-6.04837 0.696648,-7.37473 2.938992,-4.05315 7.874794,-5.46338 12.532254,-6.26295 m -4.526756,14.07425 c 2.627841,-0.0915 -0.144727,6.04546 -0.739511,7.0014 -2.284941,3.67427 -5.920316,5.216 -9.814982,6.53177 -1.183482,0.39978 -2.65139,1.42743 -3.95314,1.27026 -2.776008,-0.33496 0.168275,-6.66538 0.914136,-7.79806 2.629164,-3.9923 8.781785,-6.83736 13.593497,-7.00537 m 454.572402,1.23931 c 2.29129,0 2.20398,5.35887 2.10344,6.82439 -0.32015,4.71805 -3.36815,7.80918 -7.38452,9.9957 -0.91811,0.50032 -2.33628,1.86584 -3.43959,1.73646 -1.91558,-0.22516 -1.49754,-4.33573 -1.21973,-5.64674 0.88636,-4.19576 3.68565,-7.56735 6.77598,-10.36373 0.78052,-0.70644 2.00819,-2.54608 3.16442,-2.54608 M 50.139018,214.2622 c 2.477558,-0.0997 0.138113,5.99387 -0.37174,7.00511 -1.835149,3.64067 -5.637741,5.7666 -9.12442,7.56074 -0.953294,0.49053 -2.334683,1.65682 -3.414977,1.70127 -1.045898,0.0431 -1.494631,-1.28879 -1.583531,-2.11826 -0.243946,-2.27859 0.300831,-4.32091 1.318948,-6.35 2.030412,-4.04733 8.621712,-7.6155 13.17572,-7.79886 m 459.869362,2.93556 c 1.143,-0.26961 1.37054,0.82708 1.59279,1.68857 0.51594,2.01401 -0.0159,4.38679 -0.61648,6.34973 -1.27,4.16243 -7.15433,8.76512 -11.54377,9.25566 -2.55588,0.28601 -0.96838,-5.45862 -0.50271,-6.60982 1.48696,-3.66051 4.31006,-5.88778 7.37129,-8.21241 1.09009,-0.82682 2.32569,-2.14762 3.69888,-2.47173 M 46.699699,229.15613 c 1.612107,-0.0357 1.760802,3.7637 0.927365,4.61883 -1.769798,1.81583 -6.247077,2.07063 -8.571706,3.06837 -0.763323,0.32782 -2.0066,1.25175 -2.859616,1.09353 -1.550194,-0.28761 0.981075,-3.23163 1.388533,-3.68115 1.627716,-1.79626 6.604,-5.04375 9.115424,-5.09958 M 508.151,233.85645 c 2.13783,-0.25426 1.58221,6.40212 -0.26723,6.60241 -0.97102,0.10478 -5.20435,-2.39765 -5.03502,-3.51181 0.127,-0.8345 4.47411,-2.99217 5.30225,-3.0906 M 254.42618,510.72146 c -2.01665,-4.34975 -7.73456,-11.51731 -12.17083,-13.49374 v 1.32291 c -3.16124,0 -6.24814,0.18521 -9.26042,1.24884 -1.2872,0.45508 -2.36934,1.53987 -3.70416,1.84414 -1.43246,0.32544 -2.4011,-0.55033 -3.70417,-0.86519 -1.34117,-0.32543 -3.11282,-0.26987 -4.49792,-0.30691 -2.26933,-0.0609 -4.80298,1.28587 -6.87916,1.11389 -2.01348,-0.16668 -4.03463,-2.40506 -6.08542,-2.92629 -1.46976,-0.37306 -3.25094,-0.8546 -4.7625,-0.89694 -1.04272,-0.0318 -2.47068,0.43657 -3.43958,0.0767 -1.37954,-0.51593 -2.32781,-2.01877 -3.43959,-2.921 -1.25544,-1.016 -2.99931,-1.83621 -4.49791,-2.43416 -1.75922,-0.70115 -4.23545,-0.20638 -5.81687,-1.23561 -2.25028,-1.46579 -3.43297,-4.27566 -5.8248,-5.76262 -2.28177,-1.42081 -5.8674,-1.61396 -7.8269,-3.26761 -2.12355,-1.79123 -3.30862,-4.60639 -5.67717,-6.36587 -1.90209,-1.41552 -4.57835,-1.31498 -6.29364,-2.80458 -2.96942,-2.58234 -4.04389,-5.88963 -7.71922,-7.98513 -2.3196,-1.32292 -5.37896,-0.81205 -8.06365,-6.03253 -0.67217,-1.08889 -1.51069,-2.13803 -2.46949,-3.16409 -0.9588,-1.02607 -1.85655,-1.36142 -3.41685,-1.84957 -1.45473,-0.45512 -1.7587,-0.12222 -2.608,-1.48477 -1.03294,-1.65714 -3.34245,-4.69011 -4.60841,-5.72793 -4.56936,-3.74386 -9.01402,-7.63995 -13.33966,-11.67033 -4.32564,-4.03038 -8.53225,-8.19503 -12.62548,-12.47599 -2.67627,-2.79929 -5.24192,-5.38758 -7.809893,-7.97355 -1.283986,-1.29299 -2.765534,-1.0615 -4.064791,-2.37941 -1.299258,-1.31792 -2.416226,-4.18525 -3.758986,-5.58026 -1.607873,-1.66952 -4.16405,-2.59775 -5.658417,-4.03709 -1.737783,-1.67216 -2.315633,-4.42118 -4.117181,-6.22035 -1.564745,-1.56104 -3.925887,-1.89971 -5.410729,-3.30465 -1.676135,-1.5822 -2.238374,-4.22275 -3.880908,-5.97693 -1.467114,-1.56898 -3.738297,-2.20398 -5.110956,-3.76238 -1.532995,-1.74096 -1.967177,-4.41854 -3.544887,-6.30502 -1.20306,-1.43669 -3.567906,-2.14048 -4.449762,-3.73856 -1.000654,-1.81504 -0.973931,-4.20158 -2.066661,-6.0616 -1.129506,-1.92088 -3.328722,-3.20146 -4.323026,-5.0509 -0.599282,-1.1139 -0.196586,-2.72521 -0.296598,-3.94494 -0.109009,-1.32821 -0.732632,-2.7305 -1.207294,-3.96875 -0.681567,-1.778 -2.482585,-3.19881 -2.918354,-5.02708 -0.647965,-2.71727 0.464608,-5.74675 -0.230452,-8.46667 -0.429419,-1.6801 -1.994165,-3.34698 -2.128308,-5.02708 -0.11483,-1.43933 0.824441,-2.62731 1.11416,-3.96875 0.306652,-1.42081 0.103187,-3.05065 0.103187,-4.49792 0,-2.11137 -1.373187,-4.38943 -1.095904,-6.35 0.274638,-1.94468 1.955536,-3.52689 2.129367,-5.55625 0.133085,-1.5531 0.370946,-3.4925 0.169333,-5.02708 -0.161925,-1.23296 -0.989012,-2.75167 -0.772318,-3.96875 1.376348,-2.35438 1.368629,-4.77308 1.178983,-7.67291 0.0093,-0.81228 0.549275,-1.81505 0.16801,-2.58498 -0.618066,-1.24884 -2.3495,-0.90488 -3.365235,-0.5715 -1.597819,0.52387 -6.506898,2.26748 -7.818437,0.92339 -2.153444,-2.20662 4.347368,-5.19112 1.188508,-6.33412 -1.817952,-0.65617 -3.180291,1.62718 -3.661833,3.01096 -0.659077,1.89441 -0.546894,3.95287 -1.189302,5.82083 -1.153319,3.35227 -3.513931,6.52991 -2.991114,10.31875 0.1905,1.38112 0.927099,2.81781 0.633147,4.23333 -0.686858,3.30465 -2.827337,5.90021 -2.827337,9.525 0,2.54794 1.471612,4.75456 1.741487,7.14375 0.248444,2.20398 -1.550193,4.95035 -1.423722,7.40833 0.07964,1.54517 0.187854,3.58511 0.757237,5.02709 0.556683,1.40758 1.778,2.74637 2.064015,4.23333 0.515143,2.68023 -0.85434,5.71235 -0.0087,8.46667 0.961761,3.13266 3.717925,5.31547 4.655873,8.20208 0.688446,2.11931 -0.148431,4.47939 0.815446,6.61458 0.809096,1.79388 1.764241,3.56394 3.11441,5.01386 0.805392,0.86254 1.965325,1.37054 2.586831,2.39977 1.6891,2.79664 1.683808,5.87904 3.997325,8.46137 1.408377,1.57163 3.538273,2.21985 4.8768,3.73856 1.73302,1.9685 2.099468,4.99269 3.972189,7.06438 1.607344,1.778 3.948377,2.28864 5.618162,3.8735 1.723232,1.63512 2.231761,4.42912 4.017963,6.21506 1.715822,1.7145 3.97801,2.16694 5.738018,3.60627 1.618456,1.32292 2.197365,4.00579 3.674798,5.588 1.823773,1.95527 4.263495,2.47385 6.107641,4.1275 1.590675,1.42875 2.225411,3.83117 3.63564,5.47158 1.73937,2.02142 4.325408,2.38125 6.109758,4.05607 1.759214,1.64835 2.343943,4.43441 4.112418,6.24152 1.785144,1.82562 4.587875,2.20927 6.208709,4.04283 1.83938,2.07698 2.47068,4.826 4.62968,6.74952 1.8632,1.65894 4.6138,1.93675 6.32434,3.55335 2.1836,2.0664 2.83077,5.10117 5.41919,6.98765 1.74625,1.27 4.34922,1.7436 5.89359,3.11679 2.04656,1.81769 2.83025,4.58523 5.10673,6.33148 1.99972,1.53458 4.78684,1.76742 6.60955,3.19352 2.38311,1.86267 3.62056,5.09058 6.11399,7.06967 1.80049,1.42875 4.38971,1.35202 6.02748,2.74637 1.89521,1.61131 2.81649,4.21746 4.79689,5.91873 2.3069,1.98173 5.43454,2.0029 7.64434,3.74385 2.04179,1.60867 3.15754,4.34975 5.33056,6.02457 2.5744,1.98437 5.58721,1.87325 8.18039,3.43164 2.48073,1.49225 3.96214,4.50056 6.62596,6.09336 2.77971,1.66422 5.84623,1.48166 8.7077,2.61672 2.55535,1.016 4.34102,3.91055 7.1673,4.9583 3.39408,1.25677 6.41879,0.5662 9.78958,1.31233 1.29249,0.28575 2.2315,1.3679 3.43959,1.85473 2.41882,0.97631 4.79927,1.40758 7.40833,1.47108 2.60218,0.0635 4.95009,-1.28058 7.40833,-1.28058 1.28032,0 2.22541,0.7276 3.43959,0.96044 2.22541,0.42598 5.43321,0.3757 7.67291,0.0344 2.54715,-0.38894 4.4794,-2.4765 6.87917,-3.03741 2.20477,-0.5133 4.64158,0.20108 6.87916,-0.13759 2.44184,-0.37041 4.83844,-1.81769 6.87917,-3.11944 m 45.77292,-14.28749 -1.32292,3.70416 c 2.70669,-0.74612 5.05354,4.99269 6.22564,6.87917 0.41805,0.67733 1.83092,2.24896 1.4023,3.10356 -0.45773,0.90488 -2.28071,0.889 -3.13002,0.84138 -3.1459,-0.17992 -5.09588,-1.68275 -7.9375,-2.62203 l -1.32292,2.64584 c 3.00831,2.19604 7.09612,3.45281 10.84792,3.15119 1.75154,-0.14288 3.50572,-1.15359 5.29166,-0.92075 1.92352,0.25135 3.89202,1.64041 5.82083,2.12195 1.60338,0.39688 3.64861,0.22755 5.29167,0.13494 2.33892,-0.13494 4.31535,-1.98173 6.61458,-2.09285 2.58763,-0.127 4.75986,1.38641 7.40834,0.82814 2.24896,-0.4736 4.51643,-0.99748 6.5696,-2.05052 1.03981,-0.53446 1.79388,-1.59544 2.9554,-1.88119 3.302,-0.81227 6.43202,-0.0979 9.78958,-1.33085 2.74373,-1.00806 4.33917,-4.0296 6.88975,-4.94771 2.36537,-0.85196 4.9186,-0.40216 7.39775,-1.50812 2.96333,-1.32027 4.26773,-3.8444 6.71512,-5.64356 2.05317,-1.50813 5.52715,-1.42875 7.83696,-2.91571 2.64848,-1.70127 3.9714,-4.58259 6.37646,-6.34471 0.9525,-0.6985 2.08492,-0.51594 3.14854,-0.86254 1.76477,-0.57415 3.59304,-1.73302 5.02708,-2.8919 1.97909,-1.60337 2.68023,-4.26244 4.53232,-5.80496 1.85737,-1.54252 4.84452,-1.75418 6.84477,-3.3602 2.48443,-1.99761 3.55335,-5.35517 5.85523,-7.20196 2.26747,-1.81504 5.36839,-2.21456 7.6147,-4.41325 1.78859,-1.75154 2.28071,-4.89479 4.05342,-6.38704 2.04787,-1.72509 4.73075,-2.37861 6.64104,-4.39473 2.04258,-2.15371 2.08684,-3.32694 4.05799,-5.30603 1.91558,-1.92087 4.63285,-2.68552 6.47171,-4.84187 1.98966,-2.33098 2.36272,-5.22288 4.03754,-7.60413 1.32291,-1.87589 4.16718,-2.98714 5.76262,-4.83129 2.16959,-2.50825 2.24102,-5.62504 3.93965,-8.19679 1.63777,-2.47914 4.73075,-3.8391 6.4426,-6.50875 1.40758,-2.19869 1.18533,-4.86833 2.45533,-6.985 1.50813,-2.51354 5.89155,-3.15538 7.48699,-5.88059 1.46843,-2.50825 1.21973,-5.47688 2.61143,-7.91369 1.15094,-2.01348 3.42371,-3.25702 4.64609,-5.31548 1.69333,-2.85221 1.3917,-5.83935 2.59027,-8.73125 0.87048,-2.10079 3.47662,-3.76237 4.69371,-5.82083 1.71714,-2.90248 1.36343,-5.98262 2.69163,-8.69725 1.16153,-2.37595 3.64596,-3.9026 4.72282,-6.45054 1.13506,-2.68287 0.48154,-6.01133 1.59543,-8.44285 1.18005,-2.57175 2.51833,-4.80271 3.49993,-7.6364 0.50006,-1.44727 1.19063,-3.49515 1.19063,-5.02708 0,-1.04246 -0.73819,-2.15636 -0.49477,-3.175 0.48418,-2.01877 2.18851,-4.20176 2.93199,-6.28933 0.82021,-2.29393 1.26471,-4.4397 1.19062,-6.87916 -0.0291,-1.03188 -0.74348,-2.18281 -0.53975,-3.175 0.31486,-1.52665 1.90236,-2.76754 2.4818,-4.23334 1.01335,-2.5691 2.0777,-7.46805 1.55647,-10.24618 -0.23813,-1.27529 -1.12184,-2.37596 -1.13771,-3.70416 -0.0185,-1.49225 1.00012,-2.79665 1.29646,-4.23334 0.23283,-1.14564 1.36933,-5.69284 -0.17584,-6.4125 -5.81783,2.52281 -14.24577,5.3393 -16.64108,9.87854 -1.08214,2.28336 -1.26206,5.44248 -1.77271,7.91104 -1.20121,5.80232 -2.65449,13.79425 -4.22611,19.5066 -4.25186,15.47548 -9.068,30.69276 -16.942,44.66012 -2.85486,5.06677 -6.3844,9.90599 -9.00906,15.08124 -1.53988,3.04007 -2.24632,6.65957 -4.09311,9.525 -4.36033,6.75746 -11.19644,12.01629 -15.52237,18.83989 -0.99219,1.56633 -0.0635,3.30729 -1.04511,4.73869 -1.61131,2.3495 -4.97416,2.51354 -6.59606,4.78631 -1.56898,2.20133 -1.51342,5.62504 -3.14854,7.65704 -1.4605,1.81504 -4.26244,2.49238 -5.92667,4.25979 -1.96321,2.08227 -1.99273,3.47128 -3.821,5.36305 -1.95791,2.02935 -5.28523,2.65496 -7.41248,4.79808 -1.70128,1.7145 -2.16165,4.62492 -4.02432,6.01133 -1.80975,1.34673 -4.18041,1.46579 -5.9981,3.03213 -1.32027,1.13771 -2.52148,2.39712 -3.45281,3.87614 -0.58473,0.93134 -0.8255,2.28865 -1.71186,2.98186 -2.00289,1.56898 -4.94506,1.99496 -7.08289,3.56923 -2.15106,1.5875 -2.70669,4.15131 -4.55613,5.77056 -1.67216,1.4605 -4.84187,1.80446 -6.82096,2.99773 -2.52147,1.51871 -3.60097,4.38679 -5.85522,5.86581 -2.04259,1.33879 -4.90273,1.33879 -7.10936,2.45798 -2.37331,1.20385 -3.70152,3.70152 -5.84729,4.88421 -2.0611,1.13506 -5.34458,0.67998 -7.64646,1.70391 -2.45004,1.09009 -4.28889,3.47134 -6.61723,4.44236 -2.13783,0.889 -5.51656,-0.0106 -7.93485,0.68527 -2.159,0.61912 -3.9026,2.45798 -6.00869,2.96862 -2.19604,0.53182 -4.46087,-1.14035 -6.69131,-0.97102 -2.77019,0.20902 -5.61181,2.31246 -8.20208,2.3495 -2.17223,0.0291 -4.66461,-1.92616 -6.87917,-2.31246 -2.74637,-0.47889 -5.19377,1.016 -7.67291,0.83344 -1.10861,-0.0794 -2.10873,-1.1086 -3.175,-1.44991 M 506.57409,295.35064 c 0.35983,3.88409 -4.84982,6.3844 -7.67292,7.8449 -0.81756,0.42333 -2.40242,1.92616 -3.36815,1.59279 -1.27529,-0.44186 -1.67746,-3.60363 -0.90223,-4.54025 0.60855,-0.73554 2.06111,-1.16417 2.94746,-1.4314 1.34144,-0.40481 2.64054,-0.89164 3.96875,-1.34143 1.73038,-0.58738 3.22527,-1.79917 5.02709,-2.12461 m -462.242676,2.61673 c 2.072481,0.56886 1.319213,4.50056 0.658813,5.84994 -1.675607,3.42635 -4.793192,3.81529 -7.786952,4.97152 -0.964935,0.37306 -2.289704,1.79652 -3.379258,1.45521 -1.692804,-0.53446 -0.525727,-5.45571 -0.207698,-6.69132 0.978958,-3.8047 7.012371,-5.5624 10.715095,-5.58535 m 460.895946,5.06148 c 3.51631,-0.2249 0.75863,8.89152 0.23475,10.24089 -1.56633,4.04813 -5.45041,5.52979 -9.08579,7.15169 -1.09008,0.48419 -2.70669,1.44727 -3.93435,1.39171 -2.39448,-0.10848 -0.30692,-5.89492 0.16933,-6.9559 1.7145,-3.80206 5.9856,-8.12422 9.46487,-10.09272 0.889,-0.50271 2.11137,-1.66952 3.15119,-1.73567 m -461.73441,6.62781 c 1.698889,0.42863 0.730779,4.70165 0.340783,5.80231 -1.531408,4.318 -4.744773,6.69925 -8.217958,9.41917 -0.85725,0.67204 -2.657739,2.5109 -3.885671,2.04788 -1.932781,-0.72761 -0.886883,-5.06942 -0.612245,-6.43996 0.94615,-4.72017 4.452937,-7.64646 8.731249,-9.50384 0.962554,-0.41804 2.559315,-1.59808 3.643842,-1.32556 m 444.15212,27.161 c -3.04006,-6.31561 5.40809,-12.39309 10.31875,-14.10494 1.23031,-0.42863 3.10092,-1.83621 4.45823,-1.524 1.46315,0.33867 0.81756,3.55071 0.508,4.51644 -1.25412,3.92377 -3.45281,6.7945 -7.34748,8.37141 -2.58233,1.04511 -5.25198,1.9738 -7.9375,2.74109 M 41.456187,324.62679 c 2.182548,-0.15082 1.741752,4.33916 1.464733,5.64885 -0.886618,4.19629 -3.685645,7.56708 -6.775978,10.36373 -0.780786,0.70644 -2.009511,2.54529 -3.164417,2.54529 -2.405327,0 -2.230437,-5.84465 -2.051844,-7.35277 0.529696,-4.4741 3.482975,-7.37129 7.332927,-9.46679 0.918633,-0.50006 2.12725,-1.66688 3.194579,-1.73831 M 496.64091,336.6642 c 4.10368,-0.93663 1.29993,6.11148 0.35806,7.51907 -2.64583,3.95287 -7.29082,7.07379 -11.96866,7.37012 -3.92906,0.25136 -2.01804,-6.65536 -0.92796,-8.12115 2.78342,-3.74915 8.128,-5.75998 12.53861,-6.76804 m -454.425898,2.80571 c 1.759215,-0.0423 2.127779,4.14338 2.097881,5.35781 -0.103981,4.21217 -2.503222,8.22325 -5.18107,11.33211 -0.694531,0.80698 -1.498071,2.7252 -2.715948,2.75695 -2.052902,0.0503 -3.161771,-4.63814 -3.180292,-6.15156 -0.06165,-4.98475 1.972734,-7.93221 5.819775,-11.05958 0.833173,-0.67733 2.005013,-2.20663 3.159654,-2.23573 m 451.666388,13.14407 c 2.50561,0.61913 -0.80169,6.13304 -1.51606,7.12523 -2.76225,3.83911 -7.42239,4.97456 -11.83299,5.65454 -0.89959,0.14023 -1.96057,1.02129 -2.87073,0.78581 -2.53206,-0.64823 0.41539,-5.92402 1.18268,-6.92679 2.83369,-3.69888 7.41181,-5.22591 11.90179,-5.94293 0.94721,-0.15081 2.18546,-0.92869 3.13531,-0.69586 m -448.269667,1.02701 c 1.450975,0.10054 1.912937,3.36286 2.173816,4.4159 1.037432,4.18306 -0.951706,8.32644 -2.901685,11.90625 -0.465667,0.8546 -1.229254,3.53483 -2.423848,3.53483 -1.716881,0 -3.464983,-3.44752 -3.824287,-4.85775 -1.191948,-4.68312 0.462756,-9.19691 3.903927,-12.48833 0.710935,-0.67733 1.977496,-2.58763 3.072077,-2.5109 m 441.241507,13.4752 c 2.83898,0.45772 -0.87048,6.20447 -1.63512,7.21518 -2.56646,3.38402 -6.38969,4.02167 -10.24202,4.90538 -1.43934,0.33073 -2.95011,1.24618 -4.48204,0.83343 -2.55059,-0.68791 0.92604,-6.0272 1.86266,-7.05908 3.01361,-3.31258 6.61458,-4.39208 10.82146,-5.14879 1.15358,-0.20902 2.48708,-0.93662 3.67506,-0.74612 M 51.226191,385.83814 c -1.414727,-0.34131 -2.42861,-1.03188 -3.405452,-2.11667 -5.395119,-6.00604 -0.890852,-11.99621 2.611702,-17.4625 2.277269,0.64029 3.080808,3.19881 3.514989,5.29167 1.001713,4.82335 -0.846666,9.85308 -2.721239,14.2875 m 6.410325,-7.76288 c 1.79652,-0.62706 3.217862,2.34157 3.820318,3.52954 1.833563,3.6195 0.922338,7.45067 -0.03096,11.1125 -0.297656,1.143 -0.18759,3.36815 -1.525058,3.92113 -1.569509,0.65087 -3.761846,-2.58763 -4.417483,-3.65654 -2.312723,-3.77296 -1.509184,-8.47725 0.558535,-12.17084 0.414867,-0.74083 0.724958,-2.43152 1.594644,-2.73579 m 419.191668,3.74382 c 6.17273,-0.762 2.87073,5.25992 0.254,7.83696 -3.02419,2.97656 -9.03552,4.32594 -13.21858,4.24921 -3.60627,-0.0688 -0.25665,-5.36575 0.85196,-6.71513 2.84162,-3.4581 7.84489,-4.84716 12.11262,-5.37104 m -410.227321,6.28918 c 1.388798,-0.18256 2.634721,1.77271 3.268133,2.75696 2.240756,3.48456 2.175933,7.55915 1.144059,11.37708 -0.320146,1.18269 0.153722,4.07194 -1.546225,4.30477 -1.676136,0.22755 -3.063346,-1.5187 -3.894931,-2.71727 -2.513277,-3.62214 -2.840038,-7.59883 -1.095111,-11.64166 0.448998,-1.03982 0.739775,-3.89467 2.124075,-4.07988 m 385.854631,18.55939 c 0.0767,-6.985 9.11682,-9.96576 15.11227,-10.11128 1.12977,-0.0291 4.18571,-1.16681 5.04032,-0.30692 1.5822,1.5928 -1.53988,5.37634 -2.56646,6.4479 -3.53484,3.69094 -12.54317,4.90428 -17.58613,3.9703 M 79.801189,416.5298 c -6.404239,-1.77006 -7.653866,-9.60702 -5.638005,-15.08125 0.333639,-0.90487 0.300566,-3.45016 1.224227,-3.88143 1.854199,-0.86784 4.017697,2.60879 4.653756,3.88143 2.099468,4.19629 1.758949,10.92729 -0.239978,15.08125 m 367.627221,-8.01006 c 1.05569,-3.82059 3.29141,-0.18257 0,0 M 84.828273,406.74022 c 5.687218,1.66423 6.204214,8.29733 6.081447,13.22917 -0.02778,1.11918 -0.5842,5.25462 -1.667668,5.75733 -1.569773,0.7276 -4.043098,-2.56646 -4.697677,-3.64331 -2.660915,-4.38415 -1.433248,-10.75796 0.283898,-15.34319 m 376.623047,2.3907 c 4.26244,-0.3757 -1.09537,6.37911 -2.11666,7.29721 -3.34169,3.00567 -10.1944,3.90525 -14.53621,3.16442 -3.3999,-0.57944 1.63248,-6.13833 2.58498,-6.96383 4.05077,-3.50838 9.08844,-3.06123 14.06789,-3.4978 m -366.288688,7.59732 c 1.179513,-0.0291 2.377811,1.63248 3.035565,2.4474 2.837923,3.51895 2.856973,7.74964 2.316953,11.90625 -0.15663,1.2065 0.39952,4.66195 -1.414989,4.85245 -1.347258,0.14023 -2.731029,-1.53193 -3.508639,-2.42623 -3.421591,-3.94229 -2.958041,-6.99558 -2.118783,-11.68664 0.194733,-1.08744 0.177271,-5.05619 1.689893,-5.09323 m 349.090778,5.6292 c 2.28864,-0.35189 4.6011,0.127 6.87916,0.13759 0.79905,0.005 2.08757,-0.41011 2.61409,0.44714 0.62441,1.01865 -0.53181,2.76225 -1.07686,3.56923 -1.8706,2.7649 -4.82864,4.89215 -8.15181,5.46894 -2.39183,0.4154 -4.98475,-0.005 -7.40833,0.0979 -0.8255,0.0344 -2.02936,0.43391 -2.59821,-0.39159 -0.80169,-1.15887 0.46038,-2.93158 1.14035,-3.85233 2.01084,-2.71198 5.21759,-4.953 8.60161,-5.47688 m -339.58139,4.22653 c 5.98673,1.91558 7.28954,9.79752 6.46615,15.08125 -0.18044,1.15887 0.38577,3.75708 -0.76014,4.48469 -1.73303,1.10331 -4.65455,-2.46063 -5.51736,-3.6248 -2.989,-4.04018 -2.26616,-11.62314 -0.18865,-15.94114 m 320.01504,14.96364 c 1.75418,-6.60664 7.12035,-6.59865 13.21635,-6.56954 1.12183,0.005 5.41337,-0.21431 5.92402,0.87842 0.8255,1.76212 -2.10608,4.64872 -3.27819,5.61181 -3.81,3.12737 -11.26637,1.80175 -15.86218,0.0793 m -308.8737,-3.82733 c 1.14882,0.045 2.3831,1.35731 3.14219,2.10344 3.15304,3.10091 3.72825,6.89769 3.70787,11.10191 -0.007,1.4023 0.14579,5.35252 -1.86346,5.44513 -1.39065,0.0661 -2.7596,-1.36261 -3.64648,-2.27013 -3.08108,-3.15118 -3.93118,-6.8236 -3.29248,-11.1125 0.1524,-1.02393 0.71967,-5.31812 1.95236,-5.26785 m 307.2862,7.08965 c 2.64847,-0.46567 5.36045,0.0476 7.9375,0.5715 0.80697,0.16404 2.1246,-0.0291 2.6326,0.77787 0.60854,0.96573 -0.16597,0.31334 -0.73747,1.01713 -1.69333,2.09815 -4.88379,5.83941 -7.58518,6.27862 -2.76755,0.44979 -6.32355,0.12965 -8.99584,-0.62177 -0.65881,-0.18785 -2.28071,-0.15875 -2.55587,-0.93398 -0.27781,-0.78581 0.82814,-1.98702 1.25677,-2.56117 1.75948,-2.35214 5.14765,-4.0202 8.04749,-4.5282 m -296.69255,2.85075 c 1.3163,-0.44715 3.11097,1.37848 3.90578,2.21191 3.0435,3.18823 4.17777,7.64646 3.77296,11.90096 -0.11033,1.15888 0.51223,4.01902 -0.89905,4.55083 -1.18322,0.44715 -2.99773,-0.9472 -3.88462,-1.60337 -4.11056,-3.04271 -4.04627,-7.34483 -3.9915,-11.94329 0.0132,-1.12184 -0.16828,-4.68842 1.09643,-5.11704 m 284.91708,7.86341 c 2.74637,-0.54504 5.51392,0.46038 8.20208,0.84667 0.88636,0.127 2.37596,0.0926 2.8919,0.98425 0.55033,0.94721 -0.35983,2.11931 -0.94192,2.80723 -1.47637,1.74889 -3.91848,3.38402 -6.18331,3.86556 -3.23585,0.68527 -6.63046,-0.25135 -9.78958,-0.80962 -0.83344,-0.14553 -2.62467,0.16933 -3.07182,-0.76465 -0.44185,-0.92604 0.6985,-2.41035 1.2753,-3.03742 1.94733,-2.11137 4.85775,-3.34433 7.61735,-3.89202 m -273.49502,1.97909 c 1.33483,-0.35455 3.14537,1.28058 3.98648,2.10079 3.25173,3.175 4.13147,6.77598 4.13147,11.16541 0,1.143 0.61039,4.82071 -0.85408,5.20171 -1.30148,0.33867 -2.95698,-0.94192 -3.90816,-1.67746 -3.98647,-3.08768 -4.241,-6.85006 -4.23359,-11.46175 0.002,-0.93398 -0.17304,-5.04825 0.87788,-5.3287 m 260.53044,8.32643 c 3.15118,-0.56356 5.75998,0.36248 8.73125,1.01865 0.97102,0.21431 2.80193,0.15081 3.38137,1.12448 0.55827,0.94456 -0.48419,2.1246 -1.0795,2.77283 -1.70656,1.85738 -4.32858,3.2676 -6.79979,3.74385 -2.88396,0.55828 -6.78921,-0.19579 -9.525,-1.19591 -0.635,-0.23284 -2.30981,-0.5715 -2.55587,-1.28323 -0.26988,-0.79111 0.80962,-1.78329 1.27793,-2.28865 1.69334,-1.82827 4.06929,-3.44487 6.56961,-3.89202 m -248.4149,1.64042 c 1.40891,-0.29633 3.00514,1.2065 3.91848,2.10079 2.97418,2.90513 4.53892,6.86065 4.51908,10.98815 -0.006,1.25148 0.22781,4.87362 -1.33826,5.19641 -1.33906,0.27517 -2.96757,-1.11654 -3.9071,-1.91293 -3.52055,-2.98186 -4.59555,-6.52198 -4.5429,-10.9564 0.0143,-1.20385 -0.0709,-5.11704 1.3507,-5.41602 m 236.77323,7.87664 c 2.92629,-0.43127 6.07748,0.7329 8.73125,1.79388 0.73819,0.29633 2.15106,0.16404 2.61408,0.92075 0.5715,0.93662 -0.68262,2.11931 -1.27264,2.68287 -1.8124,1.73038 -4.13544,3.04271 -6.63311,3.40519 -3.13266,0.45509 -6.64104,-0.25929 -9.525,-1.49489 -0.67733,-0.29105 -2.19604,-0.42863 -2.54264,-1.15094 -0.45773,-0.96308 0.70379,-2.14048 1.33879,-2.70669 2.02406,-1.79652 4.59052,-3.05329 7.28927,-3.45017 m -224.35104,1.77271 c 1.12712,-0.005 2.57889,1.14829 3.42397,1.80446 3.12208,2.43152 5.2533,6.67015 5.29166,10.63096 0.0146,1.50548 1.26445,5.66473 -1.06336,5.80231 -5.65467,0.32808 -8.97625,-7.39775 -8.99054,-11.88773 -0.004,-1.19856 -0.26167,-6.34206 1.33827,-6.35 m 211.12188,7.22313 c 3.17499,-0.45244 6.42937,0.99483 9.26041,2.21721 0.78317,0.33602 2.41565,0.3122 2.50031,1.43668 0.24871,3.21469 -6.5987,4.82336 -8.85031,5.17525 -2.83369,0.4445 -6.47171,-1.28058 -8.99583,-2.41564 -0.76994,-0.34396 -2.4765,-0.94457 -2.4765,-1.99761 0,-2.88925 6.52992,-4.1275 8.56192,-4.41589 m -198.66292,2.2225 c 1.24275,-0.4154 3.27316,1.14564 4.19417,1.84679 3.44964,2.63525 5.86264,6.86594 6.09574,11.19717 0.0601,1.11125 1.58538,3.9952 0.17013,4.70693 -1.07183,0.53711 -3.45678,-0.79375 -4.40981,-1.27793 -4.34367,-2.20663 -6.88287,-6.27063 -6.88314,-11.10192 0,-1.19592 -0.6215,-4.88685 0.83291,-5.37104 m 183.0525,4.94241 c 3.72798,-0.74083 7.38981,1.3335 10.58598,2.93423 0.81756,0.41011 2.94216,0.93398 3.02683,2.01613 0.1905,2.40771 -5.5245,3.94494 -7.26281,4.33387 -3.65125,0.82021 -7.1464,-1.37318 -10.27377,-2.921 -0.97367,-0.47889 -3.05065,-1.41552 -3.05065,-2.70404 0,-2.08227 5.43984,-3.35492 6.97442,-3.65919 m -169.29417,3.50838 c 1.14591,-0.43921 2.66833,0.50006 3.66501,0.96837 4.00553,1.88384 6.45186,5.71236 7.85363,9.71021 0.39396,1.12448 2.76066,4.66196 1.10199,5.3975 -1.43325,0.635 -3.14087,-0.254 -4.4577,-0.73025 -4.52808,-1.63248 -6.7609,-4.23333 -8.24733,-8.636 -0.45006,-1.3335 -1.85076,-5.969 0.0844,-6.70983 m 154.4775,2.29129 c 4.10104,-0.38365 7.57502,1.67746 10.84792,3.9026 0.74612,0.508 2.85485,1.32028 2.85485,2.39184 0,2.18281 -5.461,3.429 -7.08818,3.63008 -4.04284,0.50535 -7.51417,-1.89177 -10.58334,-4.20952 -0.9181,-0.69585 -3.06916,-1.73302 -2.78077,-3.1406 0.48419,-2.3495 4.96094,-2.40771 6.74952,-2.5744 m -36.48339,2.41565 c 5.09058,-1.56634 10.6336,2.80458 13.68425,6.23622 1.30439,1.4658 5.19641,4.87628 2.16164,6.1304 -5.33664,2.20398 -10.7262,-1.61131 -13.80595,-5.60123 -0.86519,-1.11919 -4.73869,-5.9346 -2.03994,-6.76539 m 18.49173,0.23812 c 4.41854,-0.73819 9.05668,2.1934 12.12585,5.05619 1.92881,1.79916 5.45306,4.2836 1.10331,5.4266 -4.08781,1.07156 -8.52487,0.89694 -11.86127,-1.9976 -1.64571,-1.42875 -3.27818,-3.12738 -4.58258,-4.86833 -0.43392,-0.5768 -1.15094,-1.50813 -0.72231,-2.26748 0.48154,-0.84667 3.02948,-1.19857 3.937,-1.34938 m -105.56875,13.9356 c -6.35264,3.05594 -13.8004,-1.49754 -16.04803,-7.40833 -0.42969,-1.12977 -1.87431,-3.73327 -1.31075,-4.94241 0.71332,-1.53194 4.92998,0.0238 5.9817,0.508 4.4614,2.04787 9.93907,6.99822 11.37708,11.84274 m 18.25625,-12.08616 c 4.38362,-0.70908 6.92521,0.9181 9.7999,3.88408 2.03941,2.10344 4.91464,3.26761 1.04802,4.88421 -0.52758,0.22225 -1.01997,0.4736 -1.5875,0.58208 -4.42331,0.84402 -8.47037,-0.86254 -11.63135,-3.9026 -0.64902,-0.62177 -2.63393,-2.17223 -2.60535,-3.15119 0.05,-1.70921 3.7629,-2.09814 4.97628,-2.29658 m -17.4625,1.57956 c 4.67387,-0.54769 9.09982,2.24102 12.43542,5.1726 2.57175,2.26219 5.83168,4.75986 0.52917,5.77321 -4.27752,0.81757 -9.13316,-0.39158 -12.12559,-3.6195 -2.16615,-2.33362 -5.94175,-6.731 -0.839,-7.32631 z"
       id="path1813"
       sodipodi:nodetypes="cscscscccccccscccccsccccccccccscscccscccsccccscscccssccccssccscccccscccccsccccsccccccssscsccccccccccccscccccccccccccccccsccccccccccccccccccccccccccsccccccscccccccccsscccccccscccccccccccccccccccccccccccccccsccccccccccccccccscsscccccccccccsccccsccccccccccccccccccccccccccccccccccscccccccccccccccccccscsccccccccccccccsccccccccccccccccccsccccccccccccccccccccccsscccccccccccccccccccccccccccccccccsccsccccccccccccccccccccccsscccccscsccccccccccccccccsccccccccccccscccccccccccccccsccccccccccccssscscsscccccccccccsccccscssccccccccccsccccsccccccscccccccccccccccccssccccccccscccccccccccccccccccsccccccccccccccccccccssccccccccsccccccccccccccccscsccccsccccccsccccccccccccccccccccccccccscccccccccccccccccccscscccccccccccscccccccccccscccccccccccccccccccccccccccccccccccccccccccccccscccccccccccccccccccccccccccccccccccccccsccscccccccccscccccccccccccccssccccccccccccccsccsccccccccccccsccccccccsccccccsccccccsccccccccccsccccccccccsccccccsccccccccscccscc" /><path
       id="path2044"
       style="fill:#99ff55;fill-opacity:1;stroke:none;stroke-width:43.7203;stroke-linecap:round;stroke-linejoin:round;stroke-dasharray:none"
       d="M 1025.8535 126.89844 C 995.34525 126.59726 968.53457 134.6061 956.55275 148.84571 C 950.68577 155.81819 942.17384 170.92154 942.17384 174.35938 C 942.17384 175.37087 970.94788 175.84376 1006.1152 175.40821 C 1041.2827 174.97262 1078.9077 175.52578 1089.7285 176.63867 C 1100.5493 177.75159 1110.5811 178.79454 1112.0215 178.95703 C 1115.9379 179.39885 1111.837 169.46665 1102.2149 155.20703 C 1092.4793 140.77964 1081.6442 134.72736 1057.1817 130.04688 C 1046.6027 128.02278 1036.023 126.99883 1025.8535 126.89844 z M 1013.3711 196.96094 C 975.02678 197.17394 938.26947 199.54341 909.42775 204.13282 C 899.70334 205.68015 890.84295 207.84847 889.73829 208.95313 C 888.63364 210.05778 885.18519 228.51022 882.07618 249.95703 C 868.82055 341.39931 871.43476 441.92607 889.89259 550.61524 C 898.91637 603.75187 902.6259 619.18763 906.05665 617.8711 C 916.26278 613.95469 963.01711 605.34498 985.89454 603.16993 C 1031.7777 598.80772 1091.4482 603.93107 1134.543 615.93165 L 1148.752 619.88868 L 1152.4492 604.76954 C 1157.708 583.26371 1166.72 532.26597 1170.4727 502.78321 C 1181.6809 414.72618 1180.3814 303.15854 1167.211 222.68164 L 1164.8379 208.18164 L 1155.7012 206.68946 C 1114.5953 199.977 1062.6712 196.68709 1013.3711 196.96094 z M 1729.709 860.28517 C 1671.2612 860.73791 1602.3465 869.29397 1538.9551 884.34571 C 1509.6828 891.29617 1443.0506 911.7157 1436.5703 915.72071 C 1434.3371 917.10091 1434.6681 921.89979 1438.2129 939.58204 C 1445.9225 978.03976 1448.2945 1016.7419 1445.252 1054.4258 C 1443.7815 1072.64 1440.7349 1096.3949 1438.4805 1107.2129 C 1436.2262 1118.0308 1434.5468 1127.0119 1434.75 1127.1719 C 1434.9532 1127.3319 1450.3681 1130.4904 1469.0039 1134.1895 C 1510.4515 1142.4166 1555.1096 1148.8985 1591.4199 1151.959 C 1606.4488 1153.2258 1622.1884 1154.6486 1626.3965 1155.1211 C 1645.6545 1157.2838 1766.3871 1154.3249 1788.1621 1151.1563 C 1818.7274 1146.7087 1836.575 1143.2698 1840.7871 1141.0156 C 1848.7592 1136.749 1854.3726 1023.1044 1849.5586 963.45118 C 1846.5911 926.67946 1839.2053 874.29706 1836.6231 871.71485 C 1833.3063 868.39815 1799.984 863.31198 1768.3047 861.28712 C 1756.1276 860.50879 1743.1971 860.18069 1729.709 860.28517 z M 293.15039 864.57618 C 265.3605 864.70775 240.64745 865.28828 229.35352 866.37501 L 210.59375 868.1797 L 205.87696 899.16407 C 203.28248 916.20584 200.04609 943.28406 198.68555 959.33595 C 195.76131 993.83667 197.17507 1084.0382 201.14649 1116.3496 L 203.88086 1138.5996 L 216.16016 1143.0547 C 237.89475 1150.942 262.30115 1155.8175 298.39063 1159.4805 C 316.40031 1161.3085 408.85609 1158.5677 439.38868 1155.3008 C 479.93086 1150.9629 536.46441 1142.7221 579.43751 1134.8848 C 604.81567 1130.2564 613.09041 1127.961 612.82618 1125.625 C 612.63298 1123.9168 610.40373 1110.7638 607.8711 1096.3965 C 598.96792 1045.8894 599.69378 986.43038 609.78126 939.94728 C 612.49657 927.43484 612.92648 921.87057 611.22657 921.2754 C 510.21092 885.90843 469.94632 875.13274 409.87891 867.38868 C 394.3339 865.38458 339.46694 864.35691 293.15039 864.57618 z M 180.97266 908.29884 C 180.62844 908.01612 172.08055 910.35861 161.97852 913.50392 C 141.26234 919.95393 138.90857 922.65307 132.19922 947.63868 C 124.73116 975.44976 125.78031 1045.4404 134.04102 1070.4473 C 136.51072 1077.9237 138.74108 1079.7641 155.29492 1088.0039 C 165.46638 1093.0668 174.27971 1097.2479 174.88086 1097.2949 C 175.48202 1097.3416 175.98124 1064.1786 175.99024 1023.6016 C 176.00095 975.9364 176.9968 942.56631 178.80274 929.31837 C 180.34014 918.04033 181.31687 908.58156 180.97266 908.29884 z M 1867.2754 909.50782 L 1869.5879 931.6172 C 1870.8594 943.777 1871.9004 988.01991 1871.9004 1029.9356 L 1871.9004 1106.1465 L 1887.336 1100.2793 C 1905.7688 1093.2727 1911.4803 1086.5039 1919.6973 1061.9277 C 1932.6353 1023.2312 1930.6548 970.35156 1915.1211 939.69728 C 1906.9144 923.50213 1902.4554 920.09558 1881.0137 913.64259 L 1867.2754 909.50782 z M 1145.5156 1430.0176 C 1144.9508 1430.0625 1144.3202 1430.1774 1143.6016 1430.3125 C 1140.4227 1430.9101 1126.5079 1433.9228 1112.6817 1437.0059 C 1074.8167 1445.4491 1029.7579 1448.5236 991.73829 1445.2578 C 965.72902 1443.0237 926.96099 1436.2623 907.95509 1430.6465 C 902.16982 1428.9371 902.5817 1427.6769 894.32423 1472.2832 C 879.1494 1554.257 873.31758 1624.0233 875.13868 1701.8145 C 876.34271 1753.2465 879.07895 1785.3043 885.5547 1823.8438 C 887.84763 1837.4898 889.11431 1840.542 892.84571 1841.4375 C 897.37557 1842.5246 947.79065 1848.5453 966.21876 1850.1992 C 971.62915 1850.6848 1003.1084 1850.7488 1036.1719 1850.3418 C 1090.9049 1849.6681 1106.0205 1848.547 1154.5313 1841.5586 L 1164.6817 1840.0957 L 1167.0156 1827.791 C 1177.5934 1772.0123 1181.2488 1720.5636 1179.7695 1648.2559 C 1178.2326 1573.1276 1172.5763 1527.7038 1155.9961 1457.3125 C 1150.2386 1432.8687 1149.4695 1429.7031 1145.5156 1430.0176 z M 933.52736 1868.5528 L 937.00196 1878.7539 C 942.36922 1894.506 953.30466 1908.7808 964.22853 1914.2949 C 969.53134 1916.9717 981.24834 1921.1063 990.26564 1923.4824 C 1013.9538 1929.7242 1040.4317 1929.4123 1068.7129 1922.5606 C 1099.0802 1915.2036 1104.9846 1912.154 1110.2774 1901.086 C 1115.078 1891.0473 1120.3858 1871.6477 1118.7735 1870.0352 C 1118.2078 1869.4695 1105.0464 1870.1128 1089.5274 1871.4668 C 1061.3763 1873.9228 951.80227 1872.8088 939.49025 1869.9414 L 933.52736 1868.5528 z "
       transform="scale(0.26458333)" /><path
       style="display:inline;opacity:0.25;fill:#000000;fill-opacity:1;stroke:none;stroke-width:5.29167;stroke-linecap:round;stroke-linejoin:round;stroke-dasharray:none"
       d="M 376.32618,307.77267 C 421.6962,263.82474 383.55056,134.84169 267.66077,135.27618 181.47711,135.5993 122.42104,232.36759 164.96247,300.8894 l -1.30058,-53.95555 21.11869,-42.33628 23.46916,-23.77135 34.54261,-14.96228 34.66009,-4.13341 35.16844,7.97988 29.87035,17.95023 21.86561,26.59322 13.32203,33.86369 1.64704,38.3405 z"
       id="path2184"
       sodipodi:nodetypes="cscccccccccccc" /><path
       style="opacity:0.25;fill:#000000;fill-opacity:1;stroke:none;stroke-width:5.29167;stroke-linecap:round;stroke-linejoin:round;stroke-dasharray:none"
       d="m 602.32781,258.56912 24.25145,-71.29934"
       id="path2186" /><path
       style="display:inline;opacity:0.25;fill:#000000;fill-opacity:1;stroke:none;stroke-width:5.29167;stroke-linecap:round;stroke-linejoin:round;stroke-dasharray:none"
       d="m 273.62212,310.24332 c 25.26377,-4.2103 33.54371,-17.43411 34.80314,-34.38379 -33.65327,22.20907 -39.92245,21.81076 -74.93101,2.73664 7.34865,14.19309 9.62965,31.45002 40.12787,31.64715 z"
       id="path2188"
       sodipodi:nodetypes="cccc" /><path
       style="display:inline;opacity:0.25;fill:#000000;fill-opacity:1;stroke:none;stroke-width:5.29167;stroke-linecap:round;stroke-linejoin:round;stroke-dasharray:none"
       d="m 491.9119,285.16572 c -16.50529,148.63574 -133.05911,206.3372 -211.38455,206.17343 -162.02595,9.9 -237.647727,-151.07553 -231.240479,-204.07 15.648118,17.17261 26.209591,63.4727 55.964239,94.58209 30.13725,31.50941 68.60653,56.44762 103.58744,68.1233 27.29866,9.11156 114.41109,14.09622 168.83607,-18.48082 24.40934,-14.61064 48.98041,-40.09536 67.1094,-65.61224 18.12899,-25.51689 27.01286,-54.96083 47.12788,-80.71576 z"
       id="path2192"
       sodipodi:nodetypes="cccssssc" /><path
       style="opacity:0.25;fill:#000000;fill-opacity:1;stroke:none;stroke-width:5.29167;stroke-linecap:round;stroke-linejoin:round;stroke-dasharray:none"
       d="m 244.09656,492.1419 c 2.24888,13.37929 11.90497,20.34937 27.44592,22.22746 15.8491,-1.8361 28.12976,-6.9481 28.33098,-23.14924"
       id="path2194"
       sodipodi:nodetypes="ccc" /><path
       style="opacity:0.25;fill:#000000;fill-opacity:1;stroke:none;stroke-width:5.29167;stroke-linecap:round;stroke-linejoin:round;stroke-dasharray:none"
       d="m 512.34884,274.07783 c -2.12244,10.43645 -5.69541,18.59458 -13.6449,19.87862 -4.64517,3.23322 -7.16092,-0.61824 -4.51475,-21.64353 8.84334,7.02735 12.69676,2.53896 18.15965,1.76491 z"
       id="path2196"
       sodipodi:nodetypes="cccc" /><path
       style="opacity:0.25;fill:#000000;fill-opacity:1;stroke:none;stroke-width:5.29167;stroke-linecap:round;stroke-linejoin:round;stroke-dasharray:none"
       d="m 30.917054,272.71509 c 2.028309,6.49576 2.952181,13.83934 8.880515,17.34126 9.012787,7.40758 11.338533,0.6735 8.572584,-16.82843 -5.100081,1.49271 -10.209606,2.96352 -17.453099,-0.51283 z"
       id="path2198"
       sodipodi:nodetypes="cccc" /><ellipse
       style="opacity:0.99;fill:#ffffff;fill-opacity:1;stroke:none;stroke-width:5.29167;stroke-linecap:round;stroke-linejoin:round;stroke-dasharray:none"
       id="path2200"
       cx="271.18768"
       cy="248.95639"
       rx="9.3255959"
       ry="5.2393126" /></g></svg>
